<svg width="25" height="20" viewBox="0 0 25 20" fill="none" xmlns="http://www.w3.org/2000/svg">
<g clip-path="url(#clip0)">
<path d="M-6.2749 0H31.3251V20.0533H-6.2749V0Z" fill="#012169"/>
<path d="M-6.2749 0V2.24033L27.1208 20.0533H31.3251V17.813L-2.07061 0H-6.2749ZM31.3251 0V2.24033L-2.07061 20.0533H-6.2749V17.813L27.1208 0H31.3251Z" fill="white"/>
<path d="M9.39298 0V20.0533H15.6572V0H9.39298ZM-6.2749 6.68575V13.3676H31.3251V6.68575H-6.2749Z" fill="white"/>
<path d="M-6.2749 8.02133V12.032H31.3251V8.02133H-6.2749ZM10.6451 0V20.0533H14.4051V0H10.6451ZM-6.2749 20.0533L6.2572 13.3676H9.06252L-3.47326 20.0533H-6.2749ZM-6.2749 0L6.2572 6.68575H3.45556L-6.2749 1.49617V0ZM15.9913 6.68575L28.5234 0H31.3251L18.793 6.68575H15.9913ZM31.3251 20.0533L18.793 13.3676H21.5946L31.3251 18.5572V20.0533Z" fill="#C8102E"/>
</g>
<defs>
<clipPath id="clip0">
<rect width="25" height="20" rx="4" fill="white"/>
</clipPath>
</defs>
</svg>
