<svg width="24" height="24" viewBox="0 0 24 24" fill="none" xmlns="http://www.w3.org/2000/svg">
<g clip-path="url(#clip0)">
<path d="M24 11.9999C24 5.37175 18.6281 -0.00012207 12 -0.00012207C5.37188 -0.00012207 0 5.37175 0 11.9999C0 17.9905 4.3875 22.9546 10.125 23.8546V15.4686H7.07812V11.9999H10.125V9.35613C10.125 6.3491 11.9156 4.68738 14.6578 4.68738C15.9703 4.68738 17.3438 4.92175 17.3438 4.92175V7.87488H15.8297C14.3391 7.87488 13.875 8.80066 13.875 9.74988V11.9999H17.2031L16.6711 15.4686H13.875V23.8546C19.6125 22.9546 24 17.9905 24 11.9999Z" fill="white"/>
</g>
<defs>
<clipPath id="clip0">
<rect y="-0.00012207" width="24" height="24" fill="white"/>
</clipPath>
</defs>
</svg>
