<svg width="24" height="24" viewBox="0 0 24 24" fill="none" xmlns="http://www.w3.org/2000/svg">
<path fill-rule="evenodd" clip-rule="evenodd" d="M12 -0.00012207C5.37258 -0.00012207 0 5.37246 0 11.9999C0 18.6273 5.37258 23.9999 12 23.9999C18.6274 23.9999 24 18.6273 24 11.9999C24 5.37246 18.6274 -0.00012207 12 -0.00012207ZM5.76071 9.93887H8.48017V18.1097H5.76071V9.93887ZM8.6592 7.41123C8.64155 6.61008 8.06865 5.99988 7.13834 5.99988C6.20803 5.99988 5.59982 6.61008 5.59982 7.41123C5.59982 8.19578 6.19005 8.82355 7.10304 8.82355H7.12042C8.06865 8.82355 8.6592 8.19578 8.6592 7.41123ZM15.1566 9.74692C16.9461 9.74692 18.2877 10.915 18.2877 13.4247L18.2876 18.1096H15.5683V13.7382C15.5683 12.6402 15.1747 11.891 14.1903 11.891C13.439 11.891 12.9915 12.3961 12.7949 12.8839C12.723 13.0588 12.7054 13.3024 12.7054 13.5466V18.1099H9.98559C9.98559 18.1099 10.0214 10.7057 9.98559 9.93901H12.7054V11.0963C13.0663 10.54 13.7127 9.74692 15.1566 9.74692Z" fill="white"/>
</svg>
