<svg width="24" height="24" viewBox="0 0 24 24" fill="none" xmlns="http://www.w3.org/2000/svg">
<path fill-rule="evenodd" clip-rule="evenodd" d="M24 11.9999C24 18.6273 18.6274 23.9999 12 23.9999C5.37258 23.9999 0 18.6273 0 11.9999C0 5.37246 5.37258 -0.00012207 12 -0.00012207C18.6274 -0.00012207 24 5.37246 24 11.9999ZM8.03582 10.9007C6.83373 11.4256 5.5986 11.9648 4.46919 12.5869L4.46911 12.587C3.87936 13.0188 4.66325 13.3242 5.39859 13.6107C5.51549 13.6562 5.63117 13.7013 5.73991 13.7463C5.83039 13.7741 5.92241 13.8034 6.01566 13.8332C6.83349 14.0937 7.74543 14.3843 8.53941 13.9472C9.84369 13.198 11.0746 12.3317 12.3045 11.4662C12.7074 11.1826 13.1103 10.8991 13.5156 10.6198C13.5346 10.6076 13.556 10.5938 13.5794 10.5786C13.9247 10.3547 14.7012 9.85141 14.414 10.545C13.7348 11.2878 13.0073 11.9453 12.2758 12.6064C11.7828 13.052 11.288 13.4992 10.805 13.9752C10.3843 14.317 9.94753 15.0043 10.4186 15.483C11.5035 16.2425 12.6054 16.9836 13.7067 17.7243C14.0651 17.9653 14.4234 18.2063 14.781 18.4479C15.3871 18.9318 16.3343 18.5404 16.4676 17.7842C16.5268 17.4364 16.5863 17.0886 16.6458 16.7407C16.9746 14.8184 17.3035 12.8953 17.5941 10.9667C17.6336 10.6642 17.6783 10.3617 17.7231 10.059C17.8317 9.32544 17.9404 8.59099 17.9743 7.85349C17.8868 7.11752 16.9944 7.27934 16.4978 7.44483C13.9452 8.41613 11.4181 9.45943 8.90099 10.5211C8.61585 10.6475 8.3268 10.7737 8.03582 10.9007Z" fill="white"/>
</svg>
