<svg width="24" height="24" viewBox="0 0 24 24" fill="none" xmlns="http://www.w3.org/2000/svg">
<path fill-rule="evenodd" clip-rule="evenodd" d="M12 -0.00012207C5.37258 -0.00012207 0 5.37246 0 11.9999C0 18.6273 5.37258 23.9999 12 23.9999C18.6274 23.9999 24 18.6273 24 11.9999C24 5.37246 18.6274 -0.00012207 12 -0.00012207ZM11.6658 10.1689L11.6406 9.75369C11.5651 8.67749 12.2282 7.6945 13.2774 7.31317C13.6635 7.17758 14.3182 7.16064 14.7463 7.27927C14.9142 7.33012 15.2331 7.4996 15.4598 7.65213L15.8711 7.93177L16.3243 7.78771C16.5761 7.71145 16.9119 7.58434 17.063 7.4996C17.2057 7.42333 17.3316 7.38096 17.3316 7.40638C17.3316 7.55044 17.021 8.04193 16.7608 8.3131C16.4083 8.69443 16.509 8.72833 17.2224 8.47411C17.6505 8.33005 17.6589 8.33005 17.575 8.49106C17.5246 8.5758 17.2644 8.87239 16.9874 9.14356C16.5174 9.60963 16.4922 9.66047 16.4922 10.0503C16.4922 10.6519 16.2068 11.9061 15.9214 12.5925C15.3926 13.8805 14.2595 15.211 13.1263 15.8804C11.5315 16.821 9.40786 17.0583 7.61999 16.5075C7.02404 16.3211 6 15.8465 6 15.7618C6 15.7363 6.31057 15.7024 6.68829 15.694C7.4773 15.677 8.26631 15.4567 8.93781 15.0669L9.39108 14.7957L8.87066 14.6178C8.13201 14.3636 7.46891 13.7788 7.30103 13.228C7.25067 13.0501 7.26746 13.0416 7.73751 13.0416L8.22434 13.0331L7.81305 12.8382C7.32621 12.5925 6.88134 12.1773 6.66311 11.7536C6.50362 11.4485 6.30218 10.6774 6.36093 10.618C6.37772 10.5926 6.55399 10.6435 6.75544 10.7113C7.33461 10.9231 7.41015 10.8723 7.0744 10.5163C6.44487 9.87232 6.25181 8.91476 6.55399 8.00804L6.69668 7.60129L7.25067 8.1521C8.38383 9.26219 9.71843 9.92317 11.2461 10.1181L11.6658 10.1689Z" fill="white"/>
</svg>
