<svg width="24" height="24" viewBox="0 0 24 24" fill="none" xmlns="http://www.w3.org/2000/svg">
<path fill-rule="evenodd" clip-rule="evenodd" d="M0 11.9999C0 5.37246 5.37258 -0.00012207 12 -0.00012207C18.6274 -0.00012207 24 5.37246 24 11.9999C24 18.6273 18.6274 23.9999 12 23.9999C5.37258 23.9999 0 18.6273 0 11.9999ZM15.1212 9.64272C15.202 9.64272 15.282 9.64352 15.3616 9.64792C14.9408 7.35472 12.5724 5.59992 9.714 5.59992C6.558 5.59992 4 7.73952 4 10.3787C4 11.9263 4.8792 13.3019 6.2428 14.1751L6.2952 14.2083L5.7432 15.9375L7.8088 14.8855C7.8088 14.8855 7.8736 14.9039 7.906 14.9135C8.4736 15.0715 9.0824 15.1571 9.714 15.1571C9.8428 15.1571 9.9708 15.1519 10.098 15.1455C9.9808 14.7819 9.9164 14.3999 9.9164 14.0055C9.9164 11.5955 12.2476 9.64272 15.1212 9.64272ZM15.1648 18.0712C12.4984 18.0712 10.3364 16.2636 10.3364 14.0336C10.3364 11.8044 12.4984 9.99677 15.1648 9.99677C17.83 9.99677 19.9912 11.8044 19.9912 14.0336C19.9912 15.3416 19.248 16.5036 18.0964 17.2412L18.052 17.2688L18.5184 18.7304L16.774 17.8408C16.774 17.8408 16.7192 17.8572 16.6916 17.8644C16.2124 17.9984 15.698 18.0712 15.1648 18.0712Z" fill="white"/>
<path d="M11.7024 7.9563C12.1456 7.9563 12.5044 8.3035 12.5044 8.7327C12.5044 9.1615 12.1456 9.5099 11.7024 9.5099C11.2588 9.5099 10.9004 9.1615 10.9004 8.7327C10.9004 8.3035 11.2588 7.9563 11.7024 7.9563Z" fill="white"/>
<path d="M16.166 12.6427C16.166 12.2811 16.4692 11.9871 16.8436 11.9871C17.2184 11.9871 17.5216 12.2811 17.5216 12.6427C17.5216 13.0059 17.2184 13.3003 16.8436 13.3003C16.4692 13.3003 16.166 13.0059 16.166 12.6427Z" fill="white"/>
<path d="M12.8062 12.6427C12.8062 12.2811 13.1102 11.9871 13.4842 11.9871C13.859 11.9871 14.1626 12.2811 14.1626 12.6427C14.1626 13.0059 13.859 13.3003 13.4842 13.3003C13.1102 13.3003 12.8062 13.0059 12.8062 12.6427Z" fill="white"/>
<path d="M7.72574 9.5099C7.28254 9.5099 6.92334 9.1615 6.92334 8.7327C6.92334 8.3035 7.28254 7.9563 7.72574 7.9563C8.16894 7.9563 8.52894 8.3035 8.52894 8.7327C8.52894 9.1615 8.16894 9.5099 7.72574 9.5099Z" fill="white"/>
</svg>
